<svg width="56" height="56" viewBox="0 0 56 56" fill="none" xmlns="http://www.w3.org/2000/svg">
    <rect width="56" height="56" fill="#FFDE00"/>
    <path d="M23.7959 25.7012H14.3037C13.6744 25.7012 13.0708 25.4557 12.6258 25.0186C12.1807 24.5815 11.9307 23.9887 11.9307 23.3705V16.3785C11.9307 15.7604 12.1807 15.1676 12.6258 14.7305C13.0708 14.2934 13.6744 14.0479 14.3037 14.0479H21.4229C22.0522 14.0479 22.6558 14.2934 23.1008 14.7305C23.5459 15.1676 23.7959 15.7604 23.7959 16.3785V30.3625C23.7959 36.5784 20.6327 40.4613 14.3037 42.0159" stroke="black" stroke-width="5.888" stroke-linecap="round" stroke-linejoin="round"/>
    <path d="M45.1528 25.7012H35.6606C35.0312 25.7012 34.4277 25.4557 33.9826 25.0186C33.5376 24.5815 33.2876 23.9887 33.2876 23.3705V16.3785C33.2876 15.7604 33.5376 15.1676 33.9826 14.7305C34.4277 14.2934 35.0312 14.0479 35.6606 14.0479H42.7797C43.4091 14.0479 44.0127 14.2934 44.4578 14.7305C44.9027 15.1676 45.1528 15.7604 45.1528 16.3785V30.3625C45.1528 36.5784 41.9895 40.4613 35.6606 42.0159" stroke="black" stroke-width="5.888" stroke-linecap="round" stroke-linejoin="round"/>
</svg>
